<!-- <svg viewBox="0 0 24 24" xmlns="http://www.w3.org/2000/svg" stroke="currentColor" fill="currentColor">
  <path d="m0 0h24v24h-24z" fill="currentColor" opacity="0" transform="matrix(-1 0 0 -1 24 24)"/>
  <g fill="currentColor"><path d="m15.15 8.4a5.83 5.83 0 0 0 -5.85 5.82v5.88a.9.9 0 0 0 .9.9h2.1a.9.9 0 0 0 .9-.9v-5.88a1.94 1.94 0 0 1 2.15-1.93 2 2 0 0 1 1.75 2v5.81a.9.9 0 0 0 .9.9h2.1a.9.9 0 0 0 .9-.9v-5.88a5.83 5.83 0 0 0 -5.85-5.82z"/><rect height="11.7" rx=".9" width="4.5" x="3" y="9.3"/><circle cx="5.25" cy="5.25" r="2.25"/>
  </g>
</svg> -->

<svg xmlns="http://www.w3.org/2000/svg" viewBox="0 0 448 512" fill="currentColor"><!--!Font Awesome Free 6.5.1 by @fontawesome - https://fontawesome.com License - https://fontawesome.com/license/free Copyright 2023 Fonticons, Inc.--><path d="M100.3 448H7.4V148.9h92.9zM53.8 108.1C24.1 108.1 0 83.5 0 53.8a53.8 53.8 0 0 1 107.6 0c0 29.7-24.1 54.3-53.8 54.3zM447.9 448h-92.7V302.4c0-34.7-.7-79.2-48.3-79.2-48.3 0-55.7 37.7-55.7 76.7V448h-92.8V148.9h89.1v40.8h1.3c12.4-23.5 42.7-48.3 87.9-48.3 94 0 111.3 61.9 111.3 142.3V448z"/></svg>